{"title":"Billy Budd(1962)MP-4[DaScubaDude]","uid":12964670,"size":1220992314,"categoryP":"video","categoryS":"movies","magnet":"?xt=urn:btih:65123dc10031c787299c9700789afe0d2a08d380&amp;dn=Billy+Budd%281962%29MP-4%5BDaScubaDude%5D&amp;tr=udp%3A%2F%2Ftracker.leechers-paradise.org%3A6969&amp;tr=udp%3A%2F%2Fzer0day.ch%3A1337&amp;tr=udp%3A%2F%2Fopen.demonii.com%3A1337&amp;tr=udp%3A%2F%2Ftracker.coppersurfer.tk%3A6969&amp;tr=udp%3A%2F%2Fexodus.desync.com%3A6969","seeders":1,"leechers":1,"uploader":"dascuba","files":1,"time":1449880273,"description":"Billy is an innocent, naive seaman in the British Navy in 1797. When the ship's sadistic master-at-arms is murdered, Billy is accused and tried.\r\nDirector: Peter Ustinov\r\nWriters: Louis O. Coxe (based upon the play: &quot;Billy Budd&quot;), Robert H. Chapman (based upon the play: &quot;Billy Budd&quot;) | 3 more credits »\r\nStars: Robert Ryan, Peter Ustinov, Melvyn Douglas \r\n\r\nGeneral\r\nComplete name                            :Billy BuddBILLY_BUDD_Title1.mp4\r\nFormat                                   : MPEG-4\r\nFormat profile                           : Base Media\r\nCodec ID                                 : isom\r\nFile size                                : 1.14 GiB\r\nDuration                                 : 2h 2mn\r\nOverall bit rate mode                    : Variable\r\nOverall bit rate                         : 1 324 Kbps\r\nMovie name                               : BILLY_BUDD\r\nGenre                                    : Drama\r\nWriting application                      : Lavf54.6.100\r\n\r\nVideo\r\nID                                       : 1\r\nFormat                                   : AVC\r\nFormat/Info                              : Advanced Video Codec\r\nFormat profile                           :   \r\nFormat settings, CABAC                   : No\r\nFormat settings, ReFrames                : 6 frames\r\nFormat settings, GOP                     : M=1, N=60\r\nCodec ID                                 : avc1\r\nCodec ID/Info                            : Advanced Video Coding\r\nDuration                                 : 2h 2mn\r\nBit rate                                 : 1 209 Kbps\r\nWidth                                    : 720 pixels\r\nHeight                                   : 404 pixels\r\nDisplay aspect ratio                     : 16:9\r\nFrame rate mode                          : Constant\r\nFrame rate                               : 29.970 fps\r\nColor space                              : YUV\r\nChroma subsampling                       : 4:2:0\r\nBit depth                                : 8 bits\r\nScan type                                : Progressive\r\nBits/(Pixel*Frame)                       : 0.139\r\nStream size                              : 1.04 GiB (91%)\r\n\r\nAudio\r\nID                                       : 2\r\nFormat                                   : AAC\r\nFormat/Info                              : Advanced Audio Codec\r\nFormat profile                           : LC\r\nCodec ID                                 : 40\r\nDuration                                 : 2h 2mn\r\nBit rate mode                            : Variable\r\nBit rate                                 : 108 Kbps\r\nMaximum bit rate                         : 109 Kbps\r\nChannel(s)                               : 2 channels\r\nChannel(s)_Original                      : 1 channel\r\nChannel positions                        : Front: C\r\nSampling rate                            : 44.1 KHz\r\nCompression mode                         : Lossy\r\nStream size                              : 94.9 MiB (8%)","torrent":{"xt":"urn:btih:65123dc10031c787299c9700789afe0d2a08d380","amp;dn":"Billy+Budd%281962%29MP-4%5BDaScubaDude%5D","amp;tr":["udp%3A%2F%2Ftracker.leechers-paradise.org%3A6969","udp%3A%2F%2Fzer0day.ch%3A1337","udp%3A%2F%2Fopen.demonii.com%3A1337","udp%3A%2F%2Ftracker.coppersurfer.tk%3A6969","udp%3A%2F%2Fexodus.desync.com%3A6969"],"infoHash":"65123dc10031c787299c9700789afe0d2a08d380","infoHashBuffer":{"type":"Buffer","data":[101,18,61,193,0,49,199,135,41,156,151,0,120,154,254,13,42,8,211,128]},"announce":[],"urlList":[]}}